<svg width="40" height="40" viewBox="0 0 40 40" fill="none" xmlns="http://www.w3.org/2000/svg">
<rect width="40" height="40" rx="20" fill="#E5E7EB"/>
<svg x="10" y="10" width="20" height="20" viewBox="0 0 24 24" fill="none" xmlns="http://www.w3.org/2000/svg">
<path d="M12 12C14.7614 12 17 9.76142 17 7C17 4.23858 14.7614 2 12 2C9.23858 2 7 4.23858 7 7C7 9.76142 9.23858 12 12 12Z" fill="#9CA4AF"/>
<path d="M12.0001 13C7.07127 13 3 13.8954 3 15.7647V17C3 17.5523 3.44772 18 4 18H20C20.5523 18 21 17.5523 21 17V15.7647C21 13.8954 16.9287 13 12.0001 13Z" fill="#9CA4AF"/>
</svg>
</svg>